<?xml version="1.0" standalone="no"?>
<!DOCTYPE svg PUBLIC "-//W3C//DTD SVG 20010904//EN"
 "http://www.w3.org/TR/2001/REC-SVG-20010904/DTD/svg10.dtd">
<svg version="1.0" xmlns="http://www.w3.org/2000/svg"
 width="16.000000pt" height="16.000000pt" viewBox="0 0 16.000000 16.000000"
 preserveAspectRatio="xMidYMid meet">
<metadata>
Created by potrace 1.11, written by Peter Selinger 2001-2013
</metadata>
<g transform="translate(0.000000,16.000000) scale(0.003333,-0.003333)"
fill="#000000" stroke="none">
<path d="M805 4183 c-129 -47 -206 -159 -201 -295 6 -165 140 -290 306 -284
260 10 384 322 200 506 -80 80 -203 109 -305 73z"/>
<path d="M1792 4178 c-116 -44 -194 -163 -188 -289 11 -259 323 -382 505 -200
65 65 85 113 85 206 1 96 -21 152 -84 215 -83 83 -209 110 -318 68z"/>
<path d="M2793 4179 c-220 -84 -257 -388 -64 -522 60 -42 109 -56 184 -53 111
4 214 73 260 175 30 63 29 177 0 242 -27 60 -92 125 -152 152 -64 29 -161 31
-228 6z"/>
<path d="M3805 4183 c-211 -76 -271 -334 -116 -492 114 -116 300 -118 416 -5
65 63 90 121 90 214 0 91 -24 149 -85 210 -80 80 -203 109 -305 73z"/>
<path d="M805 3183 c-214 -77 -272 -340 -110 -497 116 -113 300 -111 415 4 61
61 85 119 85 210 0 89 -26 153 -88 214 -77 75 -204 104 -302 69z"/>
<path d="M1792 3178 c-117 -44 -198 -170 -189 -293 9 -115 64 -200 164 -251
49 -24 69 -29 133 -29 91 1 147 23 209 84 116 114 118 300 5 416 -84 87 -211
116 -322 73z"/>
<path d="M2793 3180 c-64 -26 -137 -95 -166 -158 -16 -35 -22 -66 -22 -122 0
-91 24 -149 85 -210 61 -61 119 -85 210 -85 93 0 151 25 214 90 114 117 112
302 -5 416 -83 82 -212 110 -316 69z"/>
<path d="M3805 3183 c-214 -77 -272 -340 -110 -497 116 -113 300 -111 415 4
115 115 117 300 5 416 -81 82 -206 114 -310 77z"/>
<path d="M792 2178 c-64 -24 -136 -92 -165 -156 -30 -65 -30 -179 -1 -243 86
-187 333 -236 479 -93 65 63 90 121 90 214 0 91 -24 149 -85 210 -83 83 -208
110 -318 68z"/>
<path d="M1802 2182 c-125 -45 -204 -161 -198 -293 11 -259 323 -382 505 -200
65 65 85 113 85 206 1 96 -21 152 -84 215 -80 80 -203 109 -308 72z"/>
<path d="M2805 2183 c-211 -76 -272 -336 -115 -493 115 -115 299 -117 415 -4
66 64 90 121 89 214 0 91 -24 150 -84 210 -80 80 -203 109 -305 73z"/>
<path d="M3825 2191 c-51 -13 -96 -41 -141 -87 -140 -145 -91 -393 95 -477 65
-29 179 -30 242 0 187 85 235 332 93 478 -24 26 -66 56 -91 67 -51 22 -150 32
-198 19z"/>
<path d="M793 1179 c-64 -25 -137 -93 -166 -157 -16 -35 -22 -66 -22 -122 0
-93 25 -151 90 -214 60 -59 129 -85 215 -82 257 9 382 315 205 501 -83 86
-211 116 -322 74z"/>
<path d="M1805 1182 c-256 -90 -272 -443 -26 -556 64 -29 178 -29 242 0 210
97 238 386 50 517 -81 56 -178 71 -266 39z"/>
<path d="M2793 1179 c-196 -75 -254 -334 -107 -484 63 -65 121 -90 214 -90 93
0 151 25 214 90 113 115 111 297 -3 414 -81 83 -210 111 -318 70z"/>
<path d="M3812 1186 c-81 -27 -149 -87 -186 -166 -29 -62 -28 -177 1 -241 63
-141 233 -213 376 -159 200 75 259 331 112 485 -25 25 -66 55 -92 67 -59 26
-154 32 -211 14z"/>
</g>
</svg>
